# xmcd CD database file
#
# Track frame offsets:
#	150
#	19572
#	75522
#	104697
#	126372
#	168975
#	208647
#	230697
#	254390
#	291747
#	323847
#
# Disc length: 4490 seconds
#
# Revision: 0
# Processed by: cddbd v1.5.1PL2 Copyright (c) Steve Scherf et al.
# Submitted via: CDex 1.51
#
DISCID=9e11880b
DTITLE=Bänz Oester's Snow of Tomorrow - So far from Home
DYEAR=1995
DGENRE=Jazz
TTITLE0=Schnee im Oktober (for Sara)
TTITLE1=So Far From Home
TTITLE2=Wenn das jede miech (for Switzerland)
TTITLE3=Brombeer's Nightmare
TTITLE4=JBO-Schottisch
TTITLE5=Vol de nuit
TTITLE6=Sorry, Sorry
TTITLE7=Ping Pong
TTITLE8=Panarab
TTITLE9=Last Call for Love
TTITLE10=Bye Bye (for Verena)
EXTD=YEAR: 1995
EXTT0=
EXTT1=
EXTT2=
EXTT3=
EXTT4=
EXTT5=
EXTT6=
EXTT7=
EXTT8=
EXTT9=
EXTT10=
PLAYORDER=
